<svg width="296" height="206" viewBox="0 0 296 206" fill="none" xmlns="http://www.w3.org/2000/svg">
<path d="M296 194.211H0V194.359H296V194.211Z" fill="#EBEBEB"/>
<path d="M266.341 203.757H246.734V203.905H266.341V203.757Z" fill="#EBEBEB"/>
<path d="M196.083 205.37H190.938V205.518H196.083V205.37Z" fill="#EBEBEB"/>
<path d="M246.142 198.251H234.781V198.399H246.142V198.251Z" fill="#EBEBEB"/>
<path d="M56.6251 199.248H31.0566V199.396H56.6251V199.248Z" fill="#EBEBEB"/>
<path d="M65.6468 199.248H61.8994V199.396H65.6468V199.248Z" fill="#EBEBEB"/>
<path d="M133.289 201.752H77.8301V201.9H133.289V201.752Z" fill="#EBEBEB"/>
<path d="M140.305 167.756H25.9955C25.1 167.754 24.2417 167.396 23.6091 166.761C22.9764 166.126 22.6211 165.266 22.6211 164.368V3.35748C22.6289 2.46533 22.9877 1.61229 23.6195 0.983647C24.2513 0.355002 25.1051 0.0015283 25.9955 0H140.305C141.201 0 142.061 0.356859 142.695 0.992072C143.329 1.62728 143.685 2.48882 143.685 3.38714V164.368C143.685 165.267 143.329 166.128 142.695 166.763C142.061 167.399 141.201 167.756 140.305 167.756ZM25.9955 0.118639C25.1393 0.120211 24.3186 0.462138 23.7137 1.06937C23.1088 1.6766 22.7691 2.49952 22.7691 3.35748V164.368C22.7691 165.226 23.1088 166.049 23.7137 166.657C24.3186 167.264 25.1393 167.606 25.9955 167.607H140.305C141.162 167.606 141.983 167.264 142.589 166.657C143.194 166.05 143.536 165.227 143.537 164.368V3.35748C143.536 2.49897 143.194 1.67607 142.589 1.06901C141.983 0.461945 141.162 0.120208 140.305 0.118639H25.9955Z" fill="#EBEBEB"/>
<path d="M268.36 167.756H154.044C153.148 167.754 152.289 167.397 151.656 166.762C151.022 166.127 150.666 165.266 150.664 164.368V3.35748C150.673 2.46479 151.033 1.61176 151.666 0.983276C152.299 0.354795 153.153 0.00151163 154.044 0H268.36C269.249 0.00308728 270.101 0.357251 270.732 0.985729C271.362 1.61421 271.72 2.46636 271.728 3.35748V164.368C271.728 165.265 271.374 166.124 270.742 166.759C270.111 167.394 269.254 167.752 268.36 167.756ZM154.044 0.118639C153.188 0.120208 152.366 0.461945 151.761 1.06901C151.155 1.67607 150.814 2.49897 150.812 3.35748V164.368C150.814 165.227 151.155 166.05 151.761 166.657C152.366 167.264 153.188 167.606 154.044 167.607H268.36C269.216 167.606 270.038 167.264 270.643 166.657C271.249 166.05 271.59 165.227 271.592 164.368V3.35748C271.59 2.49897 271.249 1.67607 270.643 1.06901C270.038 0.461945 269.216 0.120208 268.36 0.118639H154.044Z" fill="#EBEBEB"/>
<path d="M227.382 82.9465C227.383 82.1194 227.712 81.3267 228.296 80.7419C228.879 80.1571 229.67 79.8278 230.496 79.8263C230.799 79.8256 231.1 79.8716 231.39 79.9627C231.345 79.6443 231.321 79.3233 231.319 79.0017C231.316 78.1319 231.484 77.2701 231.814 76.4656C232.144 75.6611 232.629 74.9298 233.242 74.3137C233.855 73.6975 234.583 73.2087 235.384 72.8751C236.186 72.5415 237.045 72.3698 237.914 72.3698C238.321 72.3699 238.727 72.4097 239.127 72.4885C239.774 71.409 240.756 70.5713 241.923 70.1032C243.09 69.635 244.377 69.562 245.589 69.8953C246.801 70.2287 247.871 70.95 248.636 71.9494C249.4 72.9488 249.818 74.1714 249.825 75.4307H249.919C250.653 75.3705 251.392 75.4634 252.088 75.7035C252.784 75.9436 253.423 76.3256 253.964 76.8256C254.506 77.3256 254.938 77.9326 255.234 78.6083C255.529 79.2841 255.682 80.0139 255.682 80.7517C255.682 81.4895 255.529 82.2193 255.234 82.895C254.938 83.5707 254.506 84.1777 253.964 84.6777C253.423 85.1777 252.784 85.5598 252.088 85.7998C251.392 86.0399 250.653 86.1328 249.919 86.0726H230.407C229.595 86.0509 228.824 85.7116 228.259 85.1274C227.693 84.5431 227.378 83.7603 227.382 82.9465Z" fill="#F0F0F0"/>
<path d="M52.9541 68.8576C52.9541 68.0301 53.2822 67.2364 53.8662 66.6513C54.4501 66.0661 55.2422 65.7374 56.0681 65.7374C56.3707 65.7383 56.6716 65.7823 56.962 65.8679C56.9141 65.5518 56.8904 65.2325 56.8909 64.9128C56.8909 63.1602 57.5857 61.4794 58.8225 60.2401C60.0593 59.0009 61.7367 58.3046 63.4858 58.3046C63.8932 58.305 64.2996 58.3448 64.6994 58.4233C65.3536 57.3648 66.3318 56.5467 67.4881 56.091C68.6444 55.6353 69.9167 55.5664 71.1152 55.8947C72.3138 56.2229 73.3743 56.9307 74.1384 57.9124C74.9026 58.8941 75.3295 60.0971 75.3554 61.3418H75.4501C76.7835 61.4512 78.027 62.0592 78.9336 63.045C79.8402 64.0308 80.3435 65.3222 80.3435 66.6628C80.3435 68.0033 79.8402 69.2948 78.9336 70.2806C78.027 71.2664 76.7835 71.8744 75.4501 71.9837H55.9792C55.1674 71.962 54.3962 71.6227 53.8308 71.0385C53.2654 70.4542 52.9507 69.6714 52.9541 68.8576Z" fill="#F0F0F0"/>
<path d="M133.016 23.7275H121.662C121.695 23.4518 121.712 23.1746 121.715 22.897C121.711 20.9162 120.923 19.0178 119.525 17.6171C118.127 16.2164 116.233 15.4274 114.256 15.4227H113.984C113.444 13.9677 112.41 12.7491 111.065 11.98C109.719 11.2109 108.146 10.9401 106.621 11.215C105.097 11.4899 103.717 12.293 102.723 13.4839C101.729 14.6749 101.185 16.1779 101.185 17.7303C99.6171 17.8007 98.132 18.4543 97.0198 19.5633C95.9075 20.6723 95.2479 22.1571 95.1699 23.7275H94.868C93.9872 23.7275 93.1424 24.0781 92.5196 24.7022C91.8968 25.3263 91.5469 26.1727 91.5469 27.0553C91.5469 27.9379 91.8968 28.7843 92.5196 29.4084C93.1424 30.0325 93.9872 30.3831 94.868 30.3831H133.016C133.897 30.3831 134.742 30.0325 135.365 29.4084C135.988 28.7843 136.338 27.9379 136.338 27.0553C136.338 26.1727 135.988 25.3263 135.365 24.7022C134.742 24.0781 133.897 23.7275 133.016 23.7275Z" fill="#F0F0F0"/>
<path d="M217.098 28.4734C216.191 27.0156 214.925 25.8157 213.423 24.9884C211.92 24.1611 210.23 23.7341 208.516 23.7484C206.801 23.7627 205.119 24.2177 203.63 25.0699C202.142 25.9222 200.896 27.1431 200.013 28.6157C199.543 28.482 199.057 28.4141 198.569 28.414C197.863 28.4133 197.164 28.5519 196.512 28.8219C195.86 29.0919 195.267 29.4881 194.768 29.9878C194.269 30.4875 193.873 31.0809 193.603 31.734C193.332 32.3872 193.193 33.0873 193.193 33.7943H190.358C189.646 33.7943 188.964 34.0774 188.461 34.5814C187.958 35.0853 187.676 35.7688 187.676 36.4815C187.676 37.1942 187.958 37.8777 188.461 38.3816C188.964 38.8856 189.646 39.1687 190.358 39.1687H200.137C200.946 40.4484 202.032 41.5282 203.317 42.3271C204.601 43.1259 206.049 43.623 207.552 43.7811C209.055 43.9392 210.574 43.7542 211.996 43.2399C213.418 42.7257 214.704 41.8956 215.76 40.8118C215.932 40.8207 216.104 40.8207 216.275 40.8118C217.808 40.7543 219.265 40.1299 220.365 39.0593C221.466 37.9886 222.131 36.5474 222.233 35.014C222.336 33.4806 221.868 31.9635 220.919 30.7557C219.971 29.5478 218.61 28.7347 217.098 28.4734Z" fill="#F0F0F0"/>
<path d="M157.366 66.4974C156.459 65.0396 155.194 63.8395 153.692 63.012C152.19 62.1846 150.5 61.7575 148.786 61.7718C147.072 61.7861 145.39 62.2413 143.902 63.0936C142.414 63.946 141.169 65.167 140.286 66.6398C139.488 66.4142 138.649 66.377 137.834 66.5313C137.02 66.6856 136.252 67.027 135.591 67.5288C134.93 68.0307 134.394 68.6792 134.026 69.4235C133.657 70.1677 133.466 70.9875 133.467 71.8184H130.631C129.92 71.8184 129.238 72.1015 128.735 72.6054C128.232 73.1094 127.949 73.7928 127.949 74.5055C127.949 75.2182 128.232 75.9017 128.735 76.4056C129.238 76.9096 129.92 77.1927 130.631 77.1927H140.411C141.219 78.472 142.306 79.5514 143.59 80.3501C144.874 81.1488 146.321 81.6461 147.824 81.8047C149.327 81.9633 150.846 81.7792 152.268 81.2661C153.69 80.753 154.977 79.9242 156.034 78.8418C156.205 78.8418 156.371 78.8418 156.549 78.8418C158.124 78.8432 159.641 78.2439 160.792 77.1656C161.943 76.0872 162.641 74.6106 162.745 73.0353C162.849 71.46 162.351 69.9041 161.352 68.6833C160.353 67.4625 158.928 66.6683 157.366 66.4618V66.4974Z" fill="#F0F0F0"/>
<path d="M33.4121 194.123V165.768H35.8275V152.261H39.3676V105.292H44.4825V99.2295L55.3931 94.1281V88.0182H56.9086V105.292H59.022V152.261H61.1414V127.566H66.8897V114.836H68.4881V152.261H72.8571V138.019H75.7283V134.382H82.3824V121.961H86.0231V113.17H90.5046V100.368H92.103V113.17H96.5785V121.961H100.225V134.382H106.879V138.019H109.751V152.261H113.16V134.382H119.809V95.8958H121.928V91.6544H136.142V95.8958H139.167V123.776H151.262V126.505H155.802V128.622H151.262V139.531H163.966V103.168H166.689V95.445H172.585V68.0156H174.249V95.445H178.482V103.168H203.304V100.624H204.814V117.897H206.933V118.2H208.206V135.474H210.319V140.172H214.795V127.448H216.399V157.748H218.187V145.018H219.786V164.872H220.762V150.63H223.634V146.994H230.288V134.566H233.934V125.781H238.41V112.974H240.008V125.781H244.49V134.566H248.131V146.994H254.785V150.63H257.662V164.564H258.177V164.872H259.598V194.123H33.4121Z" fill="#E6E6E6"/>
<path d="M189.452 104.872H187.741V106.586H189.452V104.872Z" fill="#F0F0F0"/>
<path d="M189.452 107.747H187.741V109.461H189.452V107.747Z" fill="#F0F0F0"/>
<path d="M189.452 119.262H187.741V120.976H189.452V119.262Z" fill="#F0F0F0"/>
<path d="M189.452 122.145H187.741V123.859H189.452V122.145Z" fill="#F0F0F0"/>
<path d="M189.452 125.022H187.741V126.743H189.452V125.022Z" fill="#F0F0F0"/>
<path d="M189.452 133.659H187.741V135.374H189.452V133.659Z" fill="#F0F0F0"/>
<path d="M189.452 136.535H187.741V138.255H189.452V136.535Z" fill="#F0F0F0"/>
<path d="M186.728 116.385H185.018V118.105H186.728V116.385Z" fill="#F0F0F0"/>
<path d="M186.728 119.262H185.018V120.976H186.728V119.262Z" fill="#F0F0F0"/>
<path d="M186.728 122.145H185.018V123.859H186.728V122.145Z" fill="#F0F0F0"/>
<path d="M186.728 125.022H185.018V126.743H186.728V125.022Z" fill="#F0F0F0"/>
<path d="M186.728 127.898H185.018V129.619H186.728V127.898Z" fill="#F0F0F0"/>
<path d="M186.728 133.659H185.018V135.374H186.728V133.659Z" fill="#F0F0F0"/>
<path d="M186.728 136.535H185.018V138.255H186.728V136.535Z" fill="#F0F0F0"/>
<path d="M184.005 104.872H182.294V106.586H184.005V104.872Z" fill="#F0F0F0"/>
<path d="M184.005 107.747H182.294V109.461H184.005V107.747Z" fill="#F0F0F0"/>
<path d="M184.005 110.624H182.294V112.344H184.005V110.624Z" fill="#F0F0F0"/>
<path d="M184.005 113.507H182.294V115.227H184.005V113.507Z" fill="#F0F0F0"/>
<path d="M184.005 116.385H182.294V118.105H184.005V116.385Z" fill="#F0F0F0"/>
<path d="M184.005 119.262H182.294V120.976H184.005V119.262Z" fill="#F0F0F0"/>
<path d="M184.005 122.145H182.294V123.859H184.005V122.145Z" fill="#F0F0F0"/>
<path d="M184.005 125.022H182.294V126.743H184.005V125.022Z" fill="#F0F0F0"/>
<path d="M184.005 127.898H182.294V129.619H184.005V127.898Z" fill="#F0F0F0"/>
<path d="M184.005 130.775H182.294V132.496H184.005V130.775Z" fill="#F0F0F0"/>
<path d="M184.005 136.535H182.294V138.255H184.005V136.535Z" fill="#F0F0F0"/>
<path d="M181.288 104.872H179.577V106.586H181.288V104.872Z" fill="#F0F0F0"/>
<path d="M181.288 107.747H179.577V109.461H181.288V107.747Z" fill="#F0F0F0"/>
<path d="M181.288 110.624H179.577V112.344H181.288V110.624Z" fill="#F0F0F0"/>
<path d="M181.288 113.507H179.577V115.227H181.288V113.507Z" fill="#F0F0F0"/>
<path d="M181.288 116.385H179.577V118.105H181.288V116.385Z" fill="#F0F0F0"/>
<path d="M181.288 119.262H179.577V120.976H181.288V119.262Z" fill="#F0F0F0"/>
<path d="M181.288 122.145H179.577V123.859H181.288V122.145Z" fill="#F0F0F0"/>
<path d="M181.288 148.049H179.577V149.763H181.288V148.049Z" fill="#F0F0F0"/>
<path d="M178.565 104.872H176.854V106.586H178.565V104.872Z" fill="#F0F0F0"/>
<path d="M178.565 107.747H176.854V109.461H178.565V107.747Z" fill="#F0F0F0"/>
<path d="M178.565 110.624H176.854V112.344H178.565V110.624Z" fill="#F0F0F0"/>
<path d="M178.565 113.507H176.854V115.227H178.565V113.507Z" fill="#F0F0F0"/>
<path d="M178.565 116.385H176.854V118.105H178.565V116.385Z" fill="#F0F0F0"/>
<path d="M178.565 119.262H176.854V120.976H178.565V119.262Z" fill="#F0F0F0"/>
<path d="M178.565 122.145H176.854V123.859H178.565V122.145Z" fill="#F0F0F0"/>
<path d="M178.565 125.022H176.854V126.743H178.565V125.022Z" fill="#F0F0F0"/>
<path d="M178.565 142.297H176.854V144.011H178.565V142.297Z" fill="#F0F0F0"/>
<path d="M178.565 145.173H176.854V146.887H178.565V145.173Z" fill="#F0F0F0"/>
<path d="M178.565 148.049H176.854V149.763H178.565V148.049Z" fill="#F0F0F0"/>
<path d="M178.565 150.933H176.854V152.653H178.565V150.933Z" fill="#F0F0F0"/>
<path d="M178.565 162.446H176.854V164.161H178.565V162.446Z" fill="#F0F0F0"/>
<path d="M175.841 104.872H174.13V106.586H175.841V104.872Z" fill="#F0F0F0"/>
<path d="M175.841 107.747H174.13V109.461H175.841V107.747Z" fill="#F0F0F0"/>
<path d="M175.841 110.624H174.13V112.344H175.841V110.624Z" fill="#F0F0F0"/>
<path d="M175.841 113.507H174.13V115.227H175.841V113.507Z" fill="#F0F0F0"/>
<path d="M175.841 116.385H174.13V118.105H175.841V116.385Z" fill="#F0F0F0"/>
<path d="M175.841 119.262H174.13V120.976H175.841V119.262Z" fill="#F0F0F0"/>
<path d="M175.841 122.145H174.13V123.859H175.841V122.145Z" fill="#F0F0F0"/>
<path d="M175.841 125.022H174.13V126.743H175.841V125.022Z" fill="#F0F0F0"/>
<path d="M175.841 127.898H174.13V129.619H175.841V127.898Z" fill="#F0F0F0"/>
<path d="M175.841 130.775H174.13V132.496H175.841V130.775Z" fill="#F0F0F0"/>
<path d="M175.841 139.414H174.13V141.128H175.841V139.414Z" fill="#F0F0F0"/>
<path d="M175.841 142.297H174.13V144.011H175.841V142.297Z" fill="#F0F0F0"/>
<path d="M175.841 145.173H174.13V146.887H175.841V145.173Z" fill="#F0F0F0"/>
<path d="M175.841 148.049H174.13V149.763H175.841V148.049Z" fill="#F0F0F0"/>
<path d="M175.841 150.933H174.13V152.653H175.841V150.933Z" fill="#F0F0F0"/>
<path d="M175.841 162.446H174.13V164.161H175.841V162.446Z" fill="#F0F0F0"/>
<path d="M173.118 104.872H171.407V106.586H173.118V104.872Z" fill="#F0F0F0"/>
<path d="M173.118 107.747H171.407V109.461H173.118V107.747Z" fill="#F0F0F0"/>
<path d="M173.118 110.624H171.407V112.344H173.118V110.624Z" fill="#F0F0F0"/>
<path d="M173.118 113.507H171.407V115.227H173.118V113.507Z" fill="#F0F0F0"/>
<path d="M173.118 116.385H171.407V118.105H173.118V116.385Z" fill="#F0F0F0"/>
<path d="M173.118 119.262H171.407V120.976H173.118V119.262Z" fill="#F0F0F0"/>
<path d="M173.118 122.145H171.407V123.859H173.118V122.145Z" fill="#F0F0F0"/>
<path d="M173.118 125.022H171.407V126.743H173.118V125.022Z" fill="#F0F0F0"/>
<path d="M173.118 127.898H171.407V129.619H173.118V127.898Z" fill="#F0F0F0"/>
<path d="M173.118 130.775H171.407V132.496H173.118V130.775Z" fill="#F0F0F0"/>
<path d="M173.118 133.659H171.407V135.374H173.118V133.659Z" fill="#F0F0F0"/>
<path d="M173.118 136.535H171.407V138.255H173.118V136.535Z" fill="#F0F0F0"/>
<path d="M173.118 139.414H171.407V141.128H173.118V139.414Z" fill="#F0F0F0"/>
<path d="M173.118 142.297H171.407V144.011H173.118V142.297Z" fill="#F0F0F0"/>
<path d="M173.118 145.173H171.407V146.887H173.118V145.173Z" fill="#F0F0F0"/>
<path d="M173.118 148.049H171.407V149.763H173.118V148.049Z" fill="#F0F0F0"/>
<path d="M173.118 150.933H171.407V152.653H173.118V150.933Z" fill="#F0F0F0"/>
<path d="M173.118 153.809H171.407V155.523H173.118V153.809Z" fill="#F0F0F0"/>
<path d="M170.401 104.872H168.69V106.586H170.401V104.872Z" fill="#F0F0F0"/>
<path d="M170.401 107.747H168.69V109.461H170.401V107.747Z" fill="#F0F0F0"/>
<path d="M170.401 110.624H168.69V112.344H170.401V110.624Z" fill="#F0F0F0"/>
<path d="M170.401 113.507H168.69V115.227H170.401V113.507Z" fill="#F0F0F0"/>
<path d="M170.401 116.385H168.69V118.105H170.401V116.385Z" fill="#F0F0F0"/>
<path d="M170.401 119.262H168.69V120.976H170.401V119.262Z" fill="#F0F0F0"/>
<path d="M170.401 122.145H168.69V123.859H170.401V122.145Z" fill="#F0F0F0"/>
<path d="M170.401 125.022H168.69V126.743H170.401V125.022Z" fill="#F0F0F0"/>
<path d="M170.401 127.898H168.69V129.619H170.401V127.898Z" fill="#F0F0F0"/>
<path d="M170.401 130.775H168.69V132.496H170.401V130.775Z" fill="#F0F0F0"/>
<path d="M170.401 139.414H168.69V141.128H170.401V139.414Z" fill="#F0F0F0"/>
<path d="M170.401 142.297H168.69V144.011H170.401V142.297Z" fill="#F0F0F0"/>
<path d="M170.401 145.173H168.69V146.887H170.401V145.173Z" fill="#F0F0F0"/>
<path d="M170.401 148.049H168.69V149.763H170.401V148.049Z" fill="#F0F0F0"/>
<path d="M167.678 104.872H165.967V106.586H167.678V104.872Z" fill="#F0F0F0"/>
<path d="M167.678 107.747H165.967V109.461H167.678V107.747Z" fill="#F0F0F0"/>
<path d="M167.678 110.624H165.967V112.344H167.678V110.624Z" fill="#F0F0F0"/>
<path d="M167.678 113.507H165.967V115.227H167.678V113.507Z" fill="#F0F0F0"/>
<path d="M167.678 116.385H165.967V118.105H167.678V116.385Z" fill="#F0F0F0"/>
<path d="M167.678 119.262H165.967V120.976H167.678V119.262Z" fill="#F0F0F0"/>
<path d="M167.678 122.145H165.967V123.859H167.678V122.145Z" fill="#F0F0F0"/>
<path d="M167.678 125.022H165.967V126.743H167.678V125.022Z" fill="#F0F0F0"/>
<path d="M167.678 127.898H165.967V129.619H167.678V127.898Z" fill="#F0F0F0"/>
<path d="M167.678 130.775H165.967V132.496H167.678V130.775Z" fill="#F0F0F0"/>
<path d="M167.678 139.414H165.967V141.128H167.678V139.414Z" fill="#F0F0F0"/>
<path d="M167.678 142.297H165.967V144.011H167.678V142.297Z" fill="#F0F0F0"/>
<path d="M167.678 145.173H165.967V146.887H167.678V145.173Z" fill="#F0F0F0"/>
<path d="M137.03 97.3975H135.319V99.1118H137.03V97.3975Z" fill="#F0F0F0"/>
<path d="M137.03 100.273H135.319V101.988H137.03V100.273Z" fill="#F0F0F0"/>
<path d="M137.03 103.15H135.319V104.865H137.03V103.15Z" fill="#F0F0F0"/>
<path d="M137.03 106.033H135.319V107.748H137.03V106.033Z" fill="#F0F0F0"/>
<path d="M137.03 108.911H135.319V110.625H137.03V108.911Z" fill="#F0F0F0"/>
<path d="M137.03 111.788H135.319V113.502H137.03V111.788Z" fill="#F0F0F0"/>
<path d="M137.03 114.664H135.319V116.378H137.03V114.664Z" fill="#F0F0F0"/>
<path d="M137.03 117.548H135.319V119.262H137.03V117.548Z" fill="#F0F0F0"/>
<path d="M137.03 126.185H135.319V127.899H137.03V126.185Z" fill="#F0F0F0"/>
<path d="M137.03 129.062H135.319V130.776H137.03V129.062Z" fill="#F0F0F0"/>
<path d="M134.313 97.3975H132.596V99.1118H134.313V97.3975Z" fill="#F0F0F0"/>
<path d="M134.313 100.273H132.596V101.988H134.313V100.273Z" fill="#F0F0F0"/>
<path d="M134.313 103.15H132.596V104.865H134.313V103.15Z" fill="#F0F0F0"/>
<path d="M134.313 106.033H132.596V107.748H134.313V106.033Z" fill="#F0F0F0"/>
<path d="M134.313 108.911H132.596V110.625H134.313V108.911Z" fill="#F0F0F0"/>
<path d="M134.313 111.788H132.596V113.502H134.313V111.788Z" fill="#F0F0F0"/>
<path d="M134.313 114.664H132.596V116.378H134.313V114.664Z" fill="#F0F0F0"/>
<path d="M134.313 117.548H132.596V119.262H134.313V117.548Z" fill="#F0F0F0"/>
<path d="M134.313 129.062H132.596V130.776H134.313V129.062Z" fill="#F0F0F0"/>
<path d="M131.596 97.3975H129.879V99.1118H131.596V97.3975Z" fill="#F0F0F0"/>
<path d="M131.596 100.273H129.879V101.988H131.596V100.273Z" fill="#F0F0F0"/>
<path d="M131.596 103.15H129.879V104.865H131.596V103.15Z" fill="#F0F0F0"/>
<path d="M131.596 106.033H129.879V107.748H131.596V106.033Z" fill="#F0F0F0"/>
<path d="M131.596 108.911H129.879V110.625H131.596V108.911Z" fill="#F0F0F0"/>
<path d="M131.596 111.788H129.879V113.502H131.596V111.788Z" fill="#F0F0F0"/>
<path d="M131.596 114.664H129.879V116.378H131.596V114.664Z" fill="#F0F0F0"/>
<path d="M131.596 117.548H129.879V119.262H131.596V117.548Z" fill="#F0F0F0"/>
<path d="M128.867 97.3975H127.156V99.1118H128.867V97.3975Z" fill="#F0F0F0"/>
<path d="M128.867 100.273H127.156V101.988H128.867V100.273Z" fill="#F0F0F0"/>
<path d="M128.867 103.15H127.156V104.865H128.867V103.15Z" fill="#F0F0F0"/>
<path d="M128.867 106.033H127.156V107.748H128.867V106.033Z" fill="#F0F0F0"/>
<path d="M128.867 108.911H127.156V110.625H128.867V108.911Z" fill="#F0F0F0"/>
<path d="M128.867 111.788H127.156V113.502H128.867V111.788Z" fill="#F0F0F0"/>
<path d="M128.867 117.548H127.156V119.262H128.867V117.548Z" fill="#F0F0F0"/>
<path d="M128.867 120.425H127.156V122.145H128.867V120.425Z" fill="#F0F0F0"/>
<path d="M128.867 129.062H127.156V130.776H128.867V129.062Z" fill="#F0F0F0"/>
<path d="M128.867 131.938H127.156V133.653H128.867V131.938Z" fill="#F0F0F0"/>
<path d="M128.867 134.821H127.156V136.536H128.867V134.821Z" fill="#F0F0F0"/>
<path d="M128.867 137.699H127.156V139.414H128.867V137.699Z" fill="#F0F0F0"/>
<path d="M128.867 140.574H127.156V142.289H128.867V140.574Z" fill="#F0F0F0"/>
<path d="M128.867 143.458H127.156V145.172H128.867V143.458Z" fill="#F0F0F0"/>
<path d="M128.867 146.335H127.156V148.055H128.867V146.335Z" fill="#F0F0F0"/>
<path d="M126.143 97.3975H124.432V99.1118H126.143V97.3975Z" fill="#F0F0F0"/>
<path d="M126.143 100.273H124.432V101.988H126.143V100.273Z" fill="#F0F0F0"/>
<path d="M126.143 103.15H124.432V104.865H126.143V103.15Z" fill="#F0F0F0"/>
<path d="M126.143 106.033H124.432V107.748H126.143V106.033Z" fill="#F0F0F0"/>
<path d="M126.143 108.911H124.432V110.625H126.143V108.911Z" fill="#F0F0F0"/>
<path d="M126.143 111.788H124.432V113.502H126.143V111.788Z" fill="#F0F0F0"/>
<path d="M126.143 120.425H124.432V122.145H126.143V120.425Z" fill="#F0F0F0"/>
<path d="M126.143 123.302H124.432V125.016H126.143V123.302Z" fill="#F0F0F0"/>
<path d="M126.143 126.185H124.432V127.899H126.143V126.185Z" fill="#F0F0F0"/>
<path d="M126.143 129.062H124.432V130.776H126.143V129.062Z" fill="#F0F0F0"/>
<path d="M126.143 131.938H124.432V133.653H126.143V131.938Z" fill="#F0F0F0"/>
<path d="M126.143 134.821H124.432V136.536H126.143V134.821Z" fill="#F0F0F0"/>
<path d="M126.143 137.699H124.432V139.414H126.143V137.699Z" fill="#F0F0F0"/>
<path d="M126.143 140.574H124.432V142.289H126.143V140.574Z" fill="#F0F0F0"/>
<path d="M126.143 143.458H124.432V145.172H126.143V143.458Z" fill="#F0F0F0"/>
<path d="M126.143 146.335H124.432V148.055H126.143V146.335Z" fill="#F0F0F0"/>
<path d="M126.143 149.212H124.432V150.926H126.143V149.212Z" fill="#F0F0F0"/>
<path d="M126.143 154.973H124.432V156.687H126.143V154.973Z" fill="#F0F0F0"/>
<path d="M123.426 97.3975H121.709V99.1118H123.426V97.3975Z" fill="#F0F0F0"/>
<path d="M123.426 100.273H121.709V101.988H123.426V100.273Z" fill="#F0F0F0"/>
<path d="M123.426 103.15H121.709V104.865H123.426V103.15Z" fill="#F0F0F0"/>
<path d="M123.426 106.033H121.709V107.748H123.426V106.033Z" fill="#F0F0F0"/>
<path d="M123.426 108.911H121.709V110.625H123.426V108.911Z" fill="#F0F0F0"/>
<path d="M123.426 111.788H121.709V113.502H123.426V111.788Z" fill="#F0F0F0"/>
<path d="M123.426 120.425H121.709V122.145H123.426V120.425Z" fill="#F0F0F0"/>
<path d="M123.426 123.302H121.709V125.016H123.426V123.302Z" fill="#F0F0F0"/>
<path d="M123.426 126.185H121.709V127.899H123.426V126.185Z" fill="#F0F0F0"/>
<path d="M123.426 129.062H121.709V130.776H123.426V129.062Z" fill="#F0F0F0"/>
<path d="M123.426 137.699H121.709V139.414H123.426V137.699Z" fill="#F0F0F0"/>
<path d="M123.426 140.574H121.709V142.289H123.426V140.574Z" fill="#F0F0F0"/>
<path d="M123.426 143.458H121.709V145.172H123.426V143.458Z" fill="#F0F0F0"/>
<path d="M123.426 146.335H121.709V148.055H123.426V146.335Z" fill="#F0F0F0"/>
<path d="M123.426 149.212H121.709V150.926H123.426V149.212Z" fill="#F0F0F0"/>
<path d="M123.426 154.973H121.709V156.687H123.426V154.973Z" fill="#F0F0F0"/>
<path d="M123.426 157.85H121.709V159.564H123.426V157.85Z" fill="#F0F0F0"/>
<path d="M98.7216 124.161H97.0107V125.875H98.7216V124.161Z" fill="#F0F0F0"/>
<path d="M98.7216 127.039H97.0107V128.753H98.7216V127.039Z" fill="#F0F0F0"/>
<path d="M98.7216 129.921H97.0107V131.635H98.7216V129.921Z" fill="#F0F0F0"/>
<path d="M98.7216 132.799H97.0107V134.513H98.7216V132.799Z" fill="#F0F0F0"/>
<path d="M98.7216 135.676H97.0107V137.39H98.7216V135.676Z" fill="#F0F0F0"/>
<path d="M98.7216 138.559H97.0107V140.273H98.7216V138.559Z" fill="#F0F0F0"/>
<path d="M98.7216 141.436H97.0107V143.15H98.7216V141.436Z" fill="#F0F0F0"/>
<path d="M98.7216 150.072H97.0107V151.787H98.7216V150.072Z" fill="#F0F0F0"/>
<path d="M98.7216 152.949H97.0107V154.664H98.7216V152.949Z" fill="#F0F0F0"/>
<path d="M98.7216 155.826H97.0107V157.54H98.7216V155.826Z" fill="#F0F0F0"/>
<path d="M96.0038 124.161H94.293V125.875H96.0038V124.161Z" fill="#F0F0F0"/>
<path d="M96.0038 127.039H94.293V128.753H96.0038V127.039Z" fill="#F0F0F0"/>
<path d="M96.0038 129.921H94.293V131.635H96.0038V129.921Z" fill="#F0F0F0"/>
<path d="M96.0038 132.799H94.293V134.513H96.0038V132.799Z" fill="#F0F0F0"/>
<path d="M96.0038 135.676H94.293V137.39H96.0038V135.676Z" fill="#F0F0F0"/>
<path d="M96.0038 138.559H94.293V140.273H96.0038V138.559Z" fill="#F0F0F0"/>
<path d="M96.0038 141.436H94.293V143.15H96.0038V141.436Z" fill="#F0F0F0"/>
<path d="M93.2812 124.161H91.5703V125.875H93.2812V124.161Z" fill="#F0F0F0"/>
<path d="M93.2812 127.039H91.5703V128.753H93.2812V127.039Z" fill="#F0F0F0"/>
<path d="M93.2812 129.921H91.5703V131.635H93.2812V129.921Z" fill="#F0F0F0"/>
<path d="M93.2812 132.799H91.5703V134.513H93.2812V132.799Z" fill="#F0F0F0"/>
<path d="M93.2812 135.676H91.5703V137.39H93.2812V135.676Z" fill="#F0F0F0"/>
<path d="M93.2812 138.559H91.5703V140.273H93.2812V138.559Z" fill="#F0F0F0"/>
<path d="M93.2812 141.436H91.5703V143.15H93.2812V141.436Z" fill="#F0F0F0"/>
<path d="M90.5585 124.161H88.8477V125.875H90.5585V124.161Z" fill="#F0F0F0"/>
<path d="M90.5585 127.039H88.8477V128.753H90.5585V127.039Z" fill="#F0F0F0"/>
<path d="M90.5585 129.921H88.8477V131.635H90.5585V129.921Z" fill="#F0F0F0"/>
<path d="M90.5585 132.799H88.8477V134.513H90.5585V132.799Z" fill="#F0F0F0"/>
<path d="M90.5585 135.676H88.8477V137.39H90.5585V135.676Z" fill="#F0F0F0"/>
<path d="M90.5585 138.559H88.8477V140.273H90.5585V138.559Z" fill="#F0F0F0"/>
<path d="M90.5585 141.436H88.8477V143.15H90.5585V141.436Z" fill="#F0F0F0"/>
<path d="M90.5585 144.312H88.8477V146.027H90.5585V144.312Z" fill="#F0F0F0"/>
<path d="M90.5585 147.195H88.8477V148.91H90.5585V147.195Z" fill="#F0F0F0"/>
<path d="M90.5585 150.072H88.8477V151.787H90.5585V150.072Z" fill="#F0F0F0"/>
<path d="M90.5585 152.949H88.8477V154.664H90.5585V152.949Z" fill="#F0F0F0"/>
<path d="M87.8359 124.161H86.125V125.875H87.8359V124.161Z" fill="#F0F0F0"/>
<path d="M87.8359 127.039H86.125V128.753H87.8359V127.039Z" fill="#F0F0F0"/>
<path d="M87.8359 129.921H86.125V131.635H87.8359V129.921Z" fill="#F0F0F0"/>
<path d="M87.8359 132.799H86.125V134.513H87.8359V132.799Z" fill="#F0F0F0"/>
<path d="M87.8359 135.676H86.125V137.39H87.8359V135.676Z" fill="#F0F0F0"/>
<path d="M87.8359 138.559H86.125V140.273H87.8359V138.559Z" fill="#F0F0F0"/>
<path d="M87.8359 141.436H86.125V143.15H87.8359V141.436Z" fill="#F0F0F0"/>
<path d="M87.8359 144.312H86.125V146.027H87.8359V144.312Z" fill="#F0F0F0"/>
<path d="M87.8359 147.195H86.125V148.91H87.8359V147.195Z" fill="#F0F0F0"/>
<path d="M87.8359 150.072H86.125V151.787H87.8359V150.072Z" fill="#F0F0F0"/>
<path d="M87.8359 152.949H86.125V154.664H87.8359V152.949Z" fill="#F0F0F0"/>
<path d="M87.8359 155.826H86.125V157.54H87.8359V155.826Z" fill="#F0F0F0"/>
<path d="M87.8359 164.463H86.125V166.177H87.8359V164.463Z" fill="#F0F0F0"/>
<path d="M87.8359 167.347H86.125V169.067H87.8359V167.347Z" fill="#F0F0F0"/>
<path d="M85.1181 124.161H83.4072V125.875H85.1181V124.161Z" fill="#F0F0F0"/>
<path d="M85.1181 127.039H83.4072V128.753H85.1181V127.039Z" fill="#F0F0F0"/>
<path d="M85.1181 129.921H83.4072V131.635H85.1181V129.921Z" fill="#F0F0F0"/>
<path d="M85.1181 138.559H83.4072V140.273H85.1181V138.559Z" fill="#F0F0F0"/>
<path d="M85.1181 141.436H83.4072V143.15H85.1181V141.436Z" fill="#F0F0F0"/>
<path d="M85.1181 144.312H83.4072V146.027H85.1181V144.312Z" fill="#F0F0F0"/>
<path d="M85.1181 147.195H83.4072V148.91H85.1181V147.195Z" fill="#F0F0F0"/>
<path d="M85.1181 150.072H83.4072V151.787H85.1181V150.072Z" fill="#F0F0F0"/>
<path d="M85.1181 152.949H83.4072V154.664H85.1181V152.949Z" fill="#F0F0F0"/>
<path d="M85.1181 155.826H83.4072V157.54H85.1181V155.826Z" fill="#F0F0F0"/>
<path d="M85.1181 164.463H83.4072V166.177H85.1181V164.463Z" fill="#F0F0F0"/>
<path d="M85.1181 167.347H83.4072V169.067H85.1181V167.347Z" fill="#F0F0F0"/>
<path d="M85.1181 170.224H83.4072V171.944H85.1181V170.224Z" fill="#F0F0F0"/>
<path d="M56.5957 106.888H54.8789V108.602H56.5957V106.888Z" fill="#F0F0F0"/>
<path d="M56.5957 109.771H54.8789V111.485H56.5957V109.771Z" fill="#F0F0F0"/>
<path d="M56.5957 112.647H54.8789V114.362H56.5957V112.647Z" fill="#F0F0F0"/>
<path d="M56.5957 115.525H54.8789V117.24H56.5957V115.525Z" fill="#F0F0F0"/>
<path d="M56.5957 118.401H54.8789V120.116H56.5957V118.401Z" fill="#F0F0F0"/>
<path d="M56.5957 121.285H54.8789V122.999H56.5957V121.285Z" fill="#F0F0F0"/>
<path d="M56.5957 124.161H54.8789V125.875H56.5957V124.161Z" fill="#F0F0F0"/>
<path d="M56.5957 127.039H54.8789V128.753H56.5957V127.039Z" fill="#F0F0F0"/>
<path d="M56.5957 129.921H54.8789V131.635H56.5957V129.921Z" fill="#F0F0F0"/>
<path d="M56.5957 132.799H54.8789V134.513H56.5957V132.799Z" fill="#F0F0F0"/>
<path d="M56.5957 135.676H54.8789V137.39H56.5957V135.676Z" fill="#F0F0F0"/>
<path d="M56.5957 138.559H54.8789V140.273H56.5957V138.559Z" fill="#F0F0F0"/>
<path d="M56.5957 141.436H54.8789V143.15H56.5957V141.436Z" fill="#F0F0F0"/>
<path d="M56.5957 144.312H54.8789V146.027H56.5957V144.312Z" fill="#F0F0F0"/>
<path d="M56.5957 147.195H54.8789V148.91H56.5957V147.195Z" fill="#F0F0F0"/>
<path d="M56.5957 150.072H54.8789V151.787H56.5957V150.072Z" fill="#F0F0F0"/>
<path d="M56.5957 152.949H54.8789V154.664H56.5957V152.949Z" fill="#F0F0F0"/>
<path d="M56.5957 155.826H54.8789V157.54H56.5957V155.826Z" fill="#F0F0F0"/>
<path d="M56.5957 158.71H54.8789V160.424H56.5957V158.71Z" fill="#F0F0F0"/>
<path d="M56.5957 161.587H54.8789V163.301H56.5957V161.587Z" fill="#F0F0F0"/>
<path d="M56.5957 164.463H54.8789V166.177H56.5957V164.463Z" fill="#F0F0F0"/>
<path d="M56.5957 167.347H54.8789V169.067H56.5957V167.347Z" fill="#F0F0F0"/>
<path d="M56.5957 170.224H54.8789V171.944H56.5957V170.224Z" fill="#F0F0F0"/>
<path d="M53.8721 106.888H52.1553V108.602H53.8721V106.888Z" fill="#F0F0F0"/>
<path d="M53.8721 109.771H52.1553V111.485H53.8721V109.771Z" fill="#F0F0F0"/>
<path d="M53.8721 112.647H52.1553V114.362H53.8721V112.647Z" fill="#F0F0F0"/>
<path d="M53.8721 115.525H52.1553V117.24H53.8721V115.525Z" fill="#F0F0F0"/>
<path d="M53.8721 118.401H52.1553V120.116H53.8721V118.401Z" fill="#F0F0F0"/>
<path d="M53.8721 121.285H52.1553V122.999H53.8721V121.285Z" fill="#F0F0F0"/>
<path d="M53.8721 124.161H52.1553V125.875H53.8721V124.161Z" fill="#F0F0F0"/>
<path d="M53.8721 127.039H52.1553V128.753H53.8721V127.039Z" fill="#F0F0F0"/>
<path d="M53.8721 129.921H52.1553V131.635H53.8721V129.921Z" fill="#F0F0F0"/>
<path d="M53.8721 132.799H52.1553V134.513H53.8721V132.799Z" fill="#F0F0F0"/>
<path d="M53.8721 135.676H52.1553V137.39H53.8721V135.676Z" fill="#F0F0F0"/>
<path d="M53.8721 138.559H52.1553V140.273H53.8721V138.559Z" fill="#F0F0F0"/>
<path d="M53.8721 141.436H52.1553V143.15H53.8721V141.436Z" fill="#F0F0F0"/>
<path d="M53.8721 144.312H52.1553V146.027H53.8721V144.312Z" fill="#F0F0F0"/>
<path d="M53.8721 147.195H52.1553V148.91H53.8721V147.195Z" fill="#F0F0F0"/>
<path d="M53.8721 150.072H52.1553V151.787H53.8721V150.072Z" fill="#F0F0F0"/>
<path d="M53.8721 152.949H52.1553V154.664H53.8721V152.949Z" fill="#F0F0F0"/>
<path d="M53.8721 155.826H52.1553V157.54H53.8721V155.826Z" fill="#F0F0F0"/>
<path d="M53.8721 158.71H52.1553V160.424H53.8721V158.71Z" fill="#F0F0F0"/>
<path d="M51.1425 106.888H49.4316V108.602H51.1425V106.888Z" fill="#F0F0F0"/>
<path d="M51.1425 109.771H49.4316V111.485H51.1425V109.771Z" fill="#F0F0F0"/>
<path d="M51.1425 112.647H49.4316V114.362H51.1425V112.647Z" fill="#F0F0F0"/>
<path d="M51.1425 115.525H49.4316V117.24H51.1425V115.525Z" fill="#F0F0F0"/>
<path d="M51.1425 118.401H49.4316V120.116H51.1425V118.401Z" fill="#F0F0F0"/>
<path d="M51.1425 121.285H49.4316V122.999H51.1425V121.285Z" fill="#F0F0F0"/>
<path d="M51.1425 124.161H49.4316V125.875H51.1425V124.161Z" fill="#F0F0F0"/>
<path d="M51.1425 127.039H49.4316V128.753H51.1425V127.039Z" fill="#F0F0F0"/>
<path d="M51.1425 129.921H49.4316V131.635H51.1425V129.921Z" fill="#F0F0F0"/>
<path d="M51.1425 132.799H49.4316V134.513H51.1425V132.799Z" fill="#F0F0F0"/>
<path d="M51.1425 135.676H49.4316V137.39H51.1425V135.676Z" fill="#F0F0F0"/>
<path d="M51.1425 138.559H49.4316V140.273H51.1425V138.559Z" fill="#F0F0F0"/>
<path d="M51.1425 141.436H49.4316V143.15H51.1425V141.436Z" fill="#F0F0F0"/>
<path d="M51.1425 144.312H49.4316V146.027H51.1425V144.312Z" fill="#F0F0F0"/>
<path d="M51.1425 147.195H49.4316V148.91H51.1425V147.195Z" fill="#F0F0F0"/>
<path d="M51.1425 150.072H49.4316V151.787H51.1425V150.072Z" fill="#F0F0F0"/>
<path d="M51.1425 152.949H49.4316V154.664H51.1425V152.949Z" fill="#F0F0F0"/>
<path d="M51.1425 155.826H49.4316V157.54H51.1425V155.826Z" fill="#F0F0F0"/>
<path d="M51.1425 158.71H49.4316V160.424H51.1425V158.71Z" fill="#F0F0F0"/>
<path d="M48.4258 106.888H46.709V108.602H48.4258V106.888Z" fill="#F0F0F0"/>
<path d="M48.4258 109.771H46.709V111.485H48.4258V109.771Z" fill="#F0F0F0"/>
<path d="M48.4258 112.647H46.709V114.362H48.4258V112.647Z" fill="#F0F0F0"/>
<path d="M48.4258 115.525H46.709V117.24H48.4258V115.525Z" fill="#F0F0F0"/>
<path d="M48.4258 118.401H46.709V120.116H48.4258V118.401Z" fill="#F0F0F0"/>
<path d="M48.4258 121.285H46.709V122.999H48.4258V121.285Z" fill="#F0F0F0"/>
<path d="M48.4258 124.161H46.709V125.875H48.4258V124.161Z" fill="#F0F0F0"/>
<path d="M48.4258 127.039H46.709V128.753H48.4258V127.039Z" fill="#F0F0F0"/>
<path d="M48.4258 129.921H46.709V131.635H48.4258V129.921Z" fill="#F0F0F0"/>
<path d="M48.4258 132.799H46.709V134.513H48.4258V132.799Z" fill="#F0F0F0"/>
<path d="M48.4258 135.676H46.709V137.39H48.4258V135.676Z" fill="#F0F0F0"/>
<path d="M48.4258 138.559H46.709V140.273H48.4258V138.559Z" fill="#F0F0F0"/>
<path d="M48.4258 141.436H46.709V143.15H48.4258V141.436Z" fill="#F0F0F0"/>
<path d="M48.4258 144.312H46.709V146.027H48.4258V144.312Z" fill="#F0F0F0"/>
<path d="M48.4258 147.195H46.709V148.91H48.4258V147.195Z" fill="#F0F0F0"/>
<path d="M45.708 106.888H43.9912V108.602H45.708V106.888Z" fill="#F0F0F0"/>
<path d="M45.708 109.771H43.9912V111.485H45.708V109.771Z" fill="#F0F0F0"/>
<path d="M45.708 112.647H43.9912V114.362H45.708V112.647Z" fill="#F0F0F0"/>
<path d="M45.708 115.525H43.9912V117.24H45.708V115.525Z" fill="#F0F0F0"/>
<path d="M45.708 118.401H43.9912V120.116H45.708V118.401Z" fill="#F0F0F0"/>
<path d="M45.708 121.285H43.9912V122.999H45.708V121.285Z" fill="#F0F0F0"/>
<path d="M45.708 124.161H43.9912V125.875H45.708V124.161Z" fill="#F0F0F0"/>
<path d="M45.708 127.039H43.9912V128.753H45.708V127.039Z" fill="#F0F0F0"/>
<path d="M45.708 129.921H43.9912V131.635H45.708V129.921Z" fill="#F0F0F0"/>
<path d="M45.708 132.799H43.9912V134.513H45.708V132.799Z" fill="#F0F0F0"/>
<path d="M45.708 135.676H43.9912V137.39H45.708V135.676Z" fill="#F0F0F0"/>
<path d="M45.708 138.559H43.9912V140.273H45.708V138.559Z" fill="#F0F0F0"/>
<path d="M45.708 141.436H43.9912V143.15H45.708V141.436Z" fill="#F0F0F0"/>
<path d="M42.9785 106.888H41.2676V108.602H42.9785V106.888Z" fill="#F0F0F0"/>
<path d="M42.9785 109.771H41.2676V111.485H42.9785V109.771Z" fill="#F0F0F0"/>
<path d="M42.9785 112.647H41.2676V114.362H42.9785V112.647Z" fill="#F0F0F0"/>
<path d="M42.9785 115.525H41.2676V117.24H42.9785V115.525Z" fill="#F0F0F0"/>
<path d="M42.9785 118.401H41.2676V120.116H42.9785V118.401Z" fill="#F0F0F0"/>
<path d="M42.9785 121.285H41.2676V122.999H42.9785V121.285Z" fill="#F0F0F0"/>
<path d="M42.9785 124.161H41.2676V125.875H42.9785V124.161Z" fill="#F0F0F0"/>
<path d="M42.9785 127.039H41.2676V128.753H42.9785V127.039Z" fill="#F0F0F0"/>
<path d="M42.9785 129.921H41.2676V131.635H42.9785V129.921Z" fill="#F0F0F0"/>
<path d="M42.9785 132.799H41.2676V134.513H42.9785V132.799Z" fill="#F0F0F0"/>
<path d="M42.9785 135.676H41.2676V137.39H42.9785V135.676Z" fill="#F0F0F0"/>
<path d="M42.9785 138.559H41.2676V140.273H42.9785V138.559Z" fill="#F0F0F0"/>
<path d="M242.98 127.898H241.27V129.619H242.98V127.898Z" fill="#F0F0F0"/>
<path d="M242.98 130.775H241.27V132.496H242.98V130.775Z" fill="#F0F0F0"/>
<path d="M242.98 133.659H241.27V135.374H242.98V133.659Z" fill="#F0F0F0"/>
<path d="M242.98 136.535H241.27V138.255H242.98V136.535Z" fill="#F0F0F0"/>
<path d="M242.98 139.414H241.27V141.128H242.98V139.414Z" fill="#F0F0F0"/>
<path d="M242.98 142.297H241.27V144.011H242.98V142.297Z" fill="#F0F0F0"/>
<path d="M242.98 145.173H241.27V146.887H242.98V145.173Z" fill="#F0F0F0"/>
<path d="M242.98 148.049H241.27V149.763H242.98V148.049Z" fill="#F0F0F0"/>
<path d="M242.98 150.933H241.27V152.653H242.98V150.933Z" fill="#F0F0F0"/>
<path d="M242.98 153.809H241.27V155.523H242.98V153.809Z" fill="#F0F0F0"/>
<path d="M242.98 156.687H241.27V158.407H242.98V156.687Z" fill="#F0F0F0"/>
<path d="M242.98 159.569H241.27V161.284H242.98V159.569Z" fill="#F0F0F0"/>
<path d="M242.98 162.446H241.27V164.161H242.98V162.446Z" fill="#F0F0F0"/>
<path d="M242.98 165.324H241.27V167.039H242.98V165.324Z" fill="#F0F0F0"/>
<path d="M242.98 168.2H241.27V169.915H242.98V168.2Z" fill="#F0F0F0"/>
<path d="M242.98 171.084H241.27V172.798H242.98V171.084Z" fill="#F0F0F0"/>
<path d="M242.98 173.96H241.27V175.674H242.98V173.96Z" fill="#F0F0F0"/>
<path d="M242.98 176.838H241.27V178.552H242.98V176.838Z" fill="#F0F0F0"/>
<path d="M242.98 179.721H241.27V181.435H242.98V179.721Z" fill="#F0F0F0"/>
<path d="M242.98 182.598H241.27V184.312H242.98V182.598Z" fill="#F0F0F0"/>
<path d="M240.258 127.898H238.547V129.619H240.258V127.898Z" fill="#F0F0F0"/>
<path d="M240.258 130.775H238.547V132.496H240.258V130.775Z" fill="#F0F0F0"/>
<path d="M240.258 133.659H238.547V135.374H240.258V133.659Z" fill="#F0F0F0"/>
<path d="M240.258 136.535H238.547V138.255H240.258V136.535Z" fill="#F0F0F0"/>
<path d="M240.258 139.414H238.547V141.128H240.258V139.414Z" fill="#F0F0F0"/>
<path d="M240.258 142.297H238.547V144.011H240.258V142.297Z" fill="#F0F0F0"/>
<path d="M240.258 145.173H238.547V146.887H240.258V145.173Z" fill="#F0F0F0"/>
<path d="M240.258 148.049H238.547V149.763H240.258V148.049Z" fill="#F0F0F0"/>
<path d="M240.258 150.933H238.547V152.653H240.258V150.933Z" fill="#F0F0F0"/>
<path d="M240.258 153.809H238.547V155.523H240.258V153.809Z" fill="#F0F0F0"/>
<path d="M240.258 156.687H238.547V158.407H240.258V156.687Z" fill="#F0F0F0"/>
<path d="M240.258 159.569H238.547V161.284H240.258V159.569Z" fill="#F0F0F0"/>
<path d="M240.258 162.446H238.547V164.161H240.258V162.446Z" fill="#F0F0F0"/>
<path d="M240.258 165.324H238.547V167.039H240.258V165.324Z" fill="#F0F0F0"/>
<path d="M240.258 168.2H238.547V169.915H240.258V168.2Z" fill="#F0F0F0"/>
<path d="M240.258 171.084H238.547V172.798H240.258V171.084Z" fill="#F0F0F0"/>
<path d="M240.258 173.96H238.547V175.674H240.258V173.96Z" fill="#F0F0F0"/>
<path d="M240.258 176.838H238.547V178.552H240.258V176.838Z" fill="#F0F0F0"/>
<path d="M237.535 127.898H235.824V129.619H237.535V127.898Z" fill="#F0F0F0"/>
<path d="M237.535 130.775H235.824V132.496H237.535V130.775Z" fill="#F0F0F0"/>
<path d="M237.535 133.659H235.824V135.374H237.535V133.659Z" fill="#F0F0F0"/>
<path d="M237.535 136.535H235.824V138.255H237.535V136.535Z" fill="#F0F0F0"/>
<path d="M237.535 139.414H235.824V141.128H237.535V139.414Z" fill="#F0F0F0"/>
<path d="M237.535 142.297H235.824V144.011H237.535V142.297Z" fill="#F0F0F0"/>
<path d="M237.535 145.173H235.824V146.887H237.535V145.173Z" fill="#F0F0F0"/>
<path d="M237.535 148.049H235.824V149.763H237.535V148.049Z" fill="#F0F0F0"/>
<path d="M237.535 150.933H235.824V152.653H237.535V150.933Z" fill="#F0F0F0"/>
<path d="M237.535 153.809H235.824V155.523H237.535V153.809Z" fill="#F0F0F0"/>
<path d="M237.535 156.687H235.824V158.407H237.535V156.687Z" fill="#F0F0F0"/>
<path d="M237.535 159.569H235.824V161.284H237.535V159.569Z" fill="#F0F0F0"/>
<path d="M237.535 162.446H235.824V164.161H237.535V162.446Z" fill="#F0F0F0"/>
<path d="M237.535 165.324H235.824V167.039H237.535V165.324Z" fill="#F0F0F0"/>
<path d="M237.535 168.2H235.824V169.915H237.535V168.2Z" fill="#F0F0F0"/>
<path d="M237.535 171.084H235.824V172.798H237.535V171.084Z" fill="#F0F0F0"/>
<path d="M237.535 173.96H235.824V175.674H237.535V173.96Z" fill="#F0F0F0"/>
<path d="M237.535 176.838H235.824V178.552H237.535V176.838Z" fill="#F0F0F0"/>
<path d="M253.163 148.911H251.452V150.631H253.163V148.911Z" fill="#F0F0F0"/>
<path d="M253.163 151.786H251.452V153.5H253.163V151.786Z" fill="#F0F0F0"/>
<path d="M253.163 154.67H251.452V156.384H253.163V154.67Z" fill="#F0F0F0"/>
<path d="M253.163 157.546H251.452V159.26H253.163V157.546Z" fill="#F0F0F0"/>
<path d="M253.163 160.424H251.452V162.138H253.163V160.424Z" fill="#F0F0F0"/>
<path d="M253.163 163.307H251.452V165.021H253.163V163.307Z" fill="#F0F0F0"/>
<path d="M253.163 166.184H251.452V167.898H253.163V166.184Z" fill="#F0F0F0"/>
<path d="M253.163 169.061H251.452V170.775H253.163V169.061Z" fill="#F0F0F0"/>
<path d="M253.163 171.943H251.452V173.658H253.163V171.943Z" fill="#F0F0F0"/>
<path d="M253.163 174.82H251.452V176.535H253.163V174.82Z" fill="#F0F0F0"/>
<path d="M253.163 177.697H251.452V179.412H253.163V177.697Z" fill="#F0F0F0"/>
<path d="M253.163 180.574H251.452V182.289H253.163V180.574Z" fill="#F0F0F0"/>
<path d="M253.163 183.457H251.452V185.171H253.163V183.457Z" fill="#F0F0F0"/>
<path d="M250.44 148.911H248.729V150.631H250.44V148.911Z" fill="#F0F0F0"/>
<path d="M250.44 151.786H248.729V153.5H250.44V151.786Z" fill="#F0F0F0"/>
<path d="M250.44 154.67H248.729V156.384H250.44V154.67Z" fill="#F0F0F0"/>
<path d="M250.44 157.546H248.729V159.26H250.44V157.546Z" fill="#F0F0F0"/>
<path d="M250.44 160.424H248.729V162.138H250.44V160.424Z" fill="#F0F0F0"/>
<path d="M250.44 163.307H248.729V165.021H250.44V163.307Z" fill="#F0F0F0"/>
<path d="M250.44 166.184H248.729V167.898H250.44V166.184Z" fill="#F0F0F0"/>
<path d="M250.44 169.061H248.729V170.775H250.44V169.061Z" fill="#F0F0F0"/>
<path d="M250.44 171.943H248.729V173.658H250.44V171.943Z" fill="#F0F0F0"/>
<path d="M250.44 174.82H248.729V176.535H250.44V174.82Z" fill="#F0F0F0"/>
<path d="M250.44 177.697H248.729V179.412H250.44V177.697Z" fill="#F0F0F0"/>
<path d="M250.44 180.574H248.729V182.289H250.44V180.574Z" fill="#F0F0F0"/>
<path d="M250.44 183.457H248.729V185.171H250.44V183.457Z" fill="#F0F0F0"/>
<path d="M247.716 148.911H246.005V150.631H247.716V148.911Z" fill="#F0F0F0"/>
<path d="M247.716 151.786H246.005V153.5H247.716V151.786Z" fill="#F0F0F0"/>
<path d="M247.716 154.67H246.005V156.384H247.716V154.67Z" fill="#F0F0F0"/>
<path d="M247.716 157.546H246.005V159.26H247.716V157.546Z" fill="#F0F0F0"/>
<path d="M247.716 160.424H246.005V162.138H247.716V160.424Z" fill="#F0F0F0"/>
<path d="M247.716 163.307H246.005V165.021H247.716V163.307Z" fill="#F0F0F0"/>
<path d="M247.716 166.184H246.005V167.898H247.716V166.184Z" fill="#F0F0F0"/>
<path d="M247.716 169.061H246.005V170.775H247.716V169.061Z" fill="#F0F0F0"/>
<path d="M247.716 171.943H246.005V173.658H247.716V171.943Z" fill="#F0F0F0"/>
<path d="M247.716 174.82H246.005V176.535H247.716V174.82Z" fill="#F0F0F0"/>
<path d="M247.716 177.697H246.005V179.412H247.716V177.697Z" fill="#F0F0F0"/>
<path d="M247.716 180.574H246.005V182.289H247.716V180.574Z" fill="#F0F0F0"/>
<path d="M247.716 183.457H246.005V185.171H247.716V183.457Z" fill="#F0F0F0"/>
<path d="M247.716 186.335H246.005V188.049H247.716V186.335Z" fill="#F0F0F0"/>
<path d="M232.597 149.771H230.886V151.485H232.597V149.771Z" fill="#F0F0F0"/>
<path d="M232.597 152.647H230.886V154.362H232.597V152.647Z" fill="#F0F0F0"/>
<path d="M232.597 155.523H230.886V157.238H232.597V155.523Z" fill="#F0F0F0"/>
<path d="M232.597 158.407H230.886V160.122H232.597V158.407Z" fill="#F0F0F0"/>
<path d="M232.597 161.284H230.886V162.999H232.597V161.284Z" fill="#F0F0F0"/>
<path d="M232.597 164.16H230.886V165.874H232.597V164.16Z" fill="#F0F0F0"/>
<path d="M232.597 167.043H230.886V168.757H232.597V167.043Z" fill="#F0F0F0"/>
<path d="M232.597 169.921H230.886V171.641H232.597V169.921Z" fill="#F0F0F0"/>
<path d="M232.597 172.798H230.886V174.512H232.597V172.798Z" fill="#F0F0F0"/>
<path d="M232.597 175.681H230.886V177.395H232.597V175.681Z" fill="#F0F0F0"/>
<path d="M232.597 184.317H230.886V186.032H232.597V184.317Z" fill="#F0F0F0"/>
<path d="M229.879 149.771H228.162V151.485H229.879V149.771Z" fill="#F0F0F0"/>
<path d="M229.879 152.647H228.162V154.362H229.879V152.647Z" fill="#F0F0F0"/>
<path d="M229.879 155.523H228.162V157.238H229.879V155.523Z" fill="#F0F0F0"/>
<path d="M229.879 158.407H228.162V160.122H229.879V158.407Z" fill="#F0F0F0"/>
<path d="M229.879 161.284H228.162V162.999H229.879V161.284Z" fill="#F0F0F0"/>
<path d="M229.879 164.16H228.162V165.874H229.879V164.16Z" fill="#F0F0F0"/>
<path d="M229.879 167.043H228.162V168.757H229.879V167.043Z" fill="#F0F0F0"/>
<path d="M229.879 169.921H228.162V171.641H229.879V169.921Z" fill="#F0F0F0"/>
<path d="M229.879 172.798H228.162V174.512H229.879V172.798Z" fill="#F0F0F0"/>
<path d="M229.879 181.435H228.162V183.155H229.879V181.435Z" fill="#F0F0F0"/>
<path d="M229.879 184.317H228.162V186.032H229.879V184.317Z" fill="#F0F0F0"/>
<path d="M227.162 149.771H225.445V151.485H227.162V149.771Z" fill="#F0F0F0"/>
<path d="M227.162 152.647H225.445V154.362H227.162V152.647Z" fill="#F0F0F0"/>
<path d="M227.162 155.523H225.445V157.238H227.162V155.523Z" fill="#F0F0F0"/>
<path d="M227.162 158.407H225.445V160.122H227.162V158.407Z" fill="#F0F0F0"/>
<path d="M227.162 161.284H225.445V162.999H227.162V161.284Z" fill="#F0F0F0"/>
<path d="M227.162 164.16H225.445V165.874H227.162V164.16Z" fill="#F0F0F0"/>
<path d="M227.162 167.043H225.445V168.757H227.162V167.043Z" fill="#F0F0F0"/>
<path d="M227.162 169.921H225.445V171.641H227.162V169.921Z" fill="#F0F0F0"/>
<path d="M227.162 178.558H225.445V180.278H227.162V178.558Z" fill="#F0F0F0"/>
<path d="M227.162 181.435H225.445V183.155H227.162V181.435Z" fill="#F0F0F0"/>
<path d="M227.162 184.317H225.445V186.032H227.162V184.317Z" fill="#F0F0F0"/>
<path d="M201.848 106.033H200.137V107.748H201.848V106.033Z" fill="#F0F0F0"/>
<path d="M201.848 108.911H200.137V110.625H201.848V108.911Z" fill="#F0F0F0"/>
<path d="M201.848 111.788H200.137V113.502H201.848V111.788Z" fill="#F0F0F0"/>
<path d="M201.848 114.664H200.137V116.378H201.848V114.664Z" fill="#F0F0F0"/>
<path d="M201.848 117.548H200.137V119.262H201.848V117.548Z" fill="#F0F0F0"/>
<path d="M201.848 120.425H200.137V122.145H201.848V120.425Z" fill="#F0F0F0"/>
<path d="M201.848 123.302H200.137V125.016H201.848V123.302Z" fill="#F0F0F0"/>
<path d="M201.848 126.185H200.137V127.899H201.848V126.185Z" fill="#F0F0F0"/>
<path d="M201.848 129.062H200.137V130.776H201.848V129.062Z" fill="#F0F0F0"/>
<path d="M201.848 131.938H200.137V133.653H201.848V131.938Z" fill="#F0F0F0"/>
<path d="M201.848 134.821H200.137V136.536H201.848V134.821Z" fill="#F0F0F0"/>
<path d="M201.848 137.699H200.137V139.414H201.848V137.699Z" fill="#F0F0F0"/>
<path d="M201.848 140.574H200.137V142.289H201.848V140.574Z" fill="#F0F0F0"/>
<path d="M201.848 143.458H200.137V145.172H201.848V143.458Z" fill="#F0F0F0"/>
<path d="M201.848 146.335H200.137V148.055H201.848V146.335Z" fill="#F0F0F0"/>
<path d="M201.848 149.212H200.137V150.926H201.848V149.212Z" fill="#F0F0F0"/>
<path d="M201.848 152.09H200.137V153.804H201.848V152.09Z" fill="#F0F0F0"/>
<path d="M201.848 157.85H200.137V159.564H201.848V157.85Z" fill="#F0F0F0"/>
<path d="M201.848 160.727H200.137V162.441H201.848V160.727Z" fill="#F0F0F0"/>
<path d="M201.848 163.609H200.137V165.324H201.848V163.609Z" fill="#F0F0F0"/>
<path d="M201.848 166.485H200.137V168.2H201.848V166.485Z" fill="#F0F0F0"/>
<path d="M201.848 169.363H200.137V171.078H201.848V169.363Z" fill="#F0F0F0"/>
<path d="M199.131 106.033H197.42V107.748H199.131V106.033Z" fill="#F0F0F0"/>
<path d="M199.131 108.911H197.42V110.625H199.131V108.911Z" fill="#F0F0F0"/>
<path d="M199.131 111.788H197.42V113.502H199.131V111.788Z" fill="#F0F0F0"/>
<path d="M199.131 114.664H197.42V116.378H199.131V114.664Z" fill="#F0F0F0"/>
<path d="M199.131 117.548H197.42V119.262H199.131V117.548Z" fill="#F0F0F0"/>
<path d="M199.131 120.425H197.42V122.145H199.131V120.425Z" fill="#F0F0F0"/>
<path d="M199.131 123.302H197.42V125.016H199.131V123.302Z" fill="#F0F0F0"/>
<path d="M199.131 126.185H197.42V127.899H199.131V126.185Z" fill="#F0F0F0"/>
<path d="M199.131 129.062H197.42V130.776H199.131V129.062Z" fill="#F0F0F0"/>
<path d="M199.131 131.938H197.42V133.653H199.131V131.938Z" fill="#F0F0F0"/>
<path d="M199.131 134.821H197.42V136.536H199.131V134.821Z" fill="#F0F0F0"/>
<path d="M199.131 137.699H197.42V139.414H199.131V137.699Z" fill="#F0F0F0"/>
<path d="M199.131 140.574H197.42V142.289H199.131V140.574Z" fill="#F0F0F0"/>
<path d="M199.131 143.458H197.42V145.172H199.131V143.458Z" fill="#F0F0F0"/>
<path d="M199.131 146.335H197.42V148.055H199.131V146.335Z" fill="#F0F0F0"/>
<path d="M199.131 149.212H197.42V150.926H199.131V149.212Z" fill="#F0F0F0"/>
<path d="M199.131 166.485H197.42V168.2H199.131V166.485Z" fill="#F0F0F0"/>
<path d="M199.131 169.363H197.42V171.078H199.131V169.363Z" fill="#F0F0F0"/>
<path d="M196.408 106.033H194.697V107.748H196.408V106.033Z" fill="#F0F0F0"/>
<path d="M196.408 108.911H194.697V110.625H196.408V108.911Z" fill="#F0F0F0"/>
<path d="M196.408 111.788H194.697V113.502H196.408V111.788Z" fill="#F0F0F0"/>
<path d="M196.408 114.664H194.697V116.378H196.408V114.664Z" fill="#F0F0F0"/>
<path d="M196.408 117.548H194.697V119.262H196.408V117.548Z" fill="#F0F0F0"/>
<path d="M196.408 120.425H194.697V122.145H196.408V120.425Z" fill="#F0F0F0"/>
<path d="M196.408 123.302H194.697V125.016H196.408V123.302Z" fill="#F0F0F0"/>
<path d="M196.408 126.185H194.697V127.899H196.408V126.185Z" fill="#F0F0F0"/>
<path d="M196.408 129.062H194.697V130.776H196.408V129.062Z" fill="#F0F0F0"/>
<path d="M196.408 131.938H194.697V133.653H196.408V131.938Z" fill="#F0F0F0"/>
<path d="M196.408 134.821H194.697V136.536H196.408V134.821Z" fill="#F0F0F0"/>
<path d="M196.408 137.699H194.697V139.414H196.408V137.699Z" fill="#F0F0F0"/>
<path d="M196.408 140.574H194.697V142.289H196.408V140.574Z" fill="#F0F0F0"/>
<path d="M196.408 143.458H194.697V145.172H196.408V143.458Z" fill="#F0F0F0"/>
<path d="M196.408 146.335H194.697V148.055H196.408V146.335Z" fill="#F0F0F0"/>
<path d="M196.408 149.212H194.697V150.926H196.408V149.212Z" fill="#F0F0F0"/>
<path d="M196.408 154.973H194.697V156.687H196.408V154.973Z" fill="#F0F0F0"/>
<path d="M196.408 157.85H194.697V159.564H196.408V157.85Z" fill="#F0F0F0"/>
<path d="M196.408 160.727H194.697V162.441H196.408V160.727Z" fill="#F0F0F0"/>
<path d="M196.408 163.609H194.697V165.324H196.408V163.609Z" fill="#F0F0F0"/>
<path d="M196.408 169.363H194.697V171.078H196.408V169.363Z" fill="#F0F0F0"/>
<path d="M211.734 142.297H210.018V144.011H211.734V142.297Z" fill="#F0F0F0"/>
<path d="M211.734 145.173H210.018V146.887H211.734V145.173Z" fill="#F0F0F0"/>
<path d="M211.734 148.049H210.018V149.763H211.734V148.049Z" fill="#F0F0F0"/>
<path d="M211.734 150.933H210.018V152.653H211.734V150.933Z" fill="#F0F0F0"/>
<path d="M211.734 153.809H210.018V155.523H211.734V153.809Z" fill="#F0F0F0"/>
<path d="M211.734 156.687H210.018V158.407H211.734V156.687Z" fill="#F0F0F0"/>
<path d="M211.734 159.569H210.018V161.284H211.734V159.569Z" fill="#F0F0F0"/>
<path d="M211.734 165.324H210.018V167.039H211.734V165.324Z" fill="#F0F0F0"/>
<path d="M211.734 168.2H210.018V169.915H211.734V168.2Z" fill="#F0F0F0"/>
<path d="M211.734 171.084H210.018V172.798H211.734V171.084Z" fill="#F0F0F0"/>
<path d="M211.734 173.96H210.018V175.674H211.734V173.96Z" fill="#F0F0F0"/>
<path d="M211.734 176.838H210.018V178.552H211.734V176.838Z" fill="#F0F0F0"/>
<path d="M211.734 179.721H210.018V181.435H211.734V179.721Z" fill="#F0F0F0"/>
<path d="M211.734 182.598H210.018V184.312H211.734V182.598Z" fill="#F0F0F0"/>
<path d="M211.734 185.475H210.018V187.189H211.734V185.475Z" fill="#F0F0F0"/>
<path d="M209.005 142.297H207.294V144.011H209.005V142.297Z" fill="#F0F0F0"/>
<path d="M209.005 145.173H207.294V146.887H209.005V145.173Z" fill="#F0F0F0"/>
<path d="M209.005 148.049H207.294V149.763H209.005V148.049Z" fill="#F0F0F0"/>
<path d="M209.005 150.933H207.294V152.653H209.005V150.933Z" fill="#F0F0F0"/>
<path d="M209.005 153.809H207.294V155.523H209.005V153.809Z" fill="#F0F0F0"/>
<path d="M209.005 156.687H207.294V158.407H209.005V156.687Z" fill="#F0F0F0"/>
<path d="M209.005 165.324H207.294V167.039H209.005V165.324Z" fill="#F0F0F0"/>
<path d="M209.005 168.2H207.294V169.915H209.005V168.2Z" fill="#F0F0F0"/>
<path d="M209.005 171.084H207.294V172.798H209.005V171.084Z" fill="#F0F0F0"/>
<path d="M209.005 173.96H207.294V175.674H209.005V173.96Z" fill="#F0F0F0"/>
<path d="M209.005 176.838H207.294V178.552H209.005V176.838Z" fill="#F0F0F0"/>
<path d="M209.005 179.721H207.294V181.435H209.005V179.721Z" fill="#F0F0F0"/>
<path d="M209.005 182.598H207.294V184.312H209.005V182.598Z" fill="#F0F0F0"/>
<path d="M209.005 185.475H207.294V187.189H209.005V185.475Z" fill="#F0F0F0"/>
<path d="M206.295 142.297H204.578V144.011H206.295V142.297Z" fill="#F0F0F0"/>
<path d="M206.295 145.173H204.578V146.887H206.295V145.173Z" fill="#F0F0F0"/>
<path d="M206.295 148.049H204.578V149.763H206.295V148.049Z" fill="#F0F0F0"/>
<path d="M206.295 150.933H204.578V152.653H206.295V150.933Z" fill="#F0F0F0"/>
<path d="M206.295 153.809H204.578V155.523H206.295V153.809Z" fill="#F0F0F0"/>
<path d="M206.295 156.687H204.578V158.407H206.295V156.687Z" fill="#F0F0F0"/>
<path d="M206.295 162.446H204.578V164.161H206.295V162.446Z" fill="#F0F0F0"/>
<path d="M206.295 165.324H204.578V167.039H206.295V165.324Z" fill="#F0F0F0"/>
<path d="M206.295 168.2H204.578V169.915H206.295V168.2Z" fill="#F0F0F0"/>
<path d="M206.295 171.084H204.578V172.798H206.295V171.084Z" fill="#F0F0F0"/>
<path d="M206.295 173.96H204.578V175.674H206.295V173.96Z" fill="#F0F0F0"/>
<path d="M206.295 176.838H204.578V178.552H206.295V176.838Z" fill="#F0F0F0"/>
<path d="M206.295 179.721H204.578V181.435H206.295V179.721Z" fill="#F0F0F0"/>
<path d="M206.295 182.598H204.578V184.312H206.295V182.598Z" fill="#F0F0F0"/>
<path d="M206.295 185.475H204.578V187.189H206.295V185.475Z" fill="#F0F0F0"/>
<path d="M148.93 126.185H147.219V127.899H148.93V126.185Z" fill="#F0F0F0"/>
<path d="M148.93 129.062H147.219V130.776H148.93V129.062Z" fill="#F0F0F0"/>
<path d="M148.93 131.938H147.219V133.653H148.93V131.938Z" fill="#F0F0F0"/>
<path d="M148.93 134.821H147.219V136.536H148.93V134.821Z" fill="#F0F0F0"/>
<path d="M148.93 137.699H147.219V139.414H148.93V137.699Z" fill="#F0F0F0"/>
<path d="M148.93 140.574H147.219V142.289H148.93V140.574Z" fill="#F0F0F0"/>
<path d="M148.93 143.458H147.219V145.172H148.93V143.458Z" fill="#F0F0F0"/>
<path d="M148.93 146.335H147.219V148.055H148.93V146.335Z" fill="#F0F0F0"/>
<path d="M148.93 149.212H147.219V150.926H148.93V149.212Z" fill="#F0F0F0"/>
<path d="M148.93 152.09H147.219V153.804H148.93V152.09Z" fill="#F0F0F0"/>
<path d="M148.93 154.973H147.219V156.687H148.93V154.973Z" fill="#F0F0F0"/>
<path d="M148.93 157.85H147.219V159.564H148.93V157.85Z" fill="#F0F0F0"/>
<path d="M148.93 160.727H147.219V162.441H148.93V160.727Z" fill="#F0F0F0"/>
<path d="M148.93 166.485H147.219V168.2H148.93V166.485Z" fill="#F0F0F0"/>
<path d="M148.93 169.363H147.219V171.078H148.93V169.363Z" fill="#F0F0F0"/>
<path d="M148.93 172.246H147.219V173.96H148.93V172.246Z" fill="#F0F0F0"/>
<path d="M148.93 175.123H147.219V176.837H148.93V175.123Z" fill="#F0F0F0"/>
<path d="M148.93 180.883H147.219V182.603H148.93V180.883Z" fill="#F0F0F0"/>
<path d="M148.93 183.76H147.219V185.474H148.93V183.76Z" fill="#F0F0F0"/>
<path d="M148.93 186.637H147.219V188.351H148.93V186.637Z" fill="#F0F0F0"/>
<path d="M146.206 126.185H144.495V127.899H146.206V126.185Z" fill="#F0F0F0"/>
<path d="M146.206 129.062H144.495V130.776H146.206V129.062Z" fill="#F0F0F0"/>
<path d="M146.206 131.938H144.495V133.653H146.206V131.938Z" fill="#F0F0F0"/>
<path d="M146.206 134.821H144.495V136.536H146.206V134.821Z" fill="#F0F0F0"/>
<path d="M146.206 137.699H144.495V139.414H146.206V137.699Z" fill="#F0F0F0"/>
<path d="M146.206 140.574H144.495V142.289H146.206V140.574Z" fill="#F0F0F0"/>
<path d="M146.206 143.458H144.495V145.172H146.206V143.458Z" fill="#F0F0F0"/>
<path d="M146.206 146.335H144.495V148.055H146.206V146.335Z" fill="#F0F0F0"/>
<path d="M146.206 149.212H144.495V150.926H146.206V149.212Z" fill="#F0F0F0"/>
<path d="M146.206 152.09H144.495V153.804H146.206V152.09Z" fill="#F0F0F0"/>
<path d="M146.206 154.973H144.495V156.687H146.206V154.973Z" fill="#F0F0F0"/>
<path d="M146.206 157.85H144.495V159.564H146.206V157.85Z" fill="#F0F0F0"/>
<path d="M146.206 160.727H144.495V162.441H146.206V160.727Z" fill="#F0F0F0"/>
<path d="M146.206 169.363H144.495V171.078H146.206V169.363Z" fill="#F0F0F0"/>
<path d="M146.206 172.246H144.495V173.96H146.206V172.246Z" fill="#F0F0F0"/>
<path d="M146.206 178H144.495V179.714H146.206V178Z" fill="#F0F0F0"/>
<path d="M146.206 180.883H144.495V182.603H146.206V180.883Z" fill="#F0F0F0"/>
<path d="M146.206 183.76H144.495V185.474H146.206V183.76Z" fill="#F0F0F0"/>
<path d="M146.206 186.637H144.495V188.351H146.206V186.637Z" fill="#F0F0F0"/>
<path d="M143.483 126.185H141.772V127.899H143.483V126.185Z" fill="#F0F0F0"/>
<path d="M143.483 129.062H141.772V130.776H143.483V129.062Z" fill="#F0F0F0"/>
<path d="M143.483 131.938H141.772V133.653H143.483V131.938Z" fill="#F0F0F0"/>
<path d="M143.483 134.821H141.772V136.536H143.483V134.821Z" fill="#F0F0F0"/>
<path d="M143.483 137.699H141.772V139.414H143.483V137.699Z" fill="#F0F0F0"/>
<path d="M143.483 140.574H141.772V142.289H143.483V140.574Z" fill="#F0F0F0"/>
<path d="M143.483 143.458H141.772V145.172H143.483V143.458Z" fill="#F0F0F0"/>
<path d="M143.483 146.335H141.772V148.055H143.483V146.335Z" fill="#F0F0F0"/>
<path d="M143.483 149.212H141.772V150.926H143.483V149.212Z" fill="#F0F0F0"/>
<path d="M143.483 152.09H141.772V153.804H143.483V152.09Z" fill="#F0F0F0"/>
<path d="M143.483 154.973H141.772V156.687H143.483V154.973Z" fill="#F0F0F0"/>
<path d="M143.483 157.85H141.772V159.564H143.483V157.85Z" fill="#F0F0F0"/>
<path d="M143.483 160.727H141.772V162.441H143.483V160.727Z" fill="#F0F0F0"/>
<path d="M143.483 163.609H141.772V165.324H143.483V163.609Z" fill="#F0F0F0"/>
<path d="M143.483 169.363H141.772V171.078H143.483V169.363Z" fill="#F0F0F0"/>
<path d="M143.483 175.123H141.772V176.837H143.483V175.123Z" fill="#F0F0F0"/>
<path d="M143.483 178H141.772V179.714H143.483V178Z" fill="#F0F0F0"/>
<path d="M143.483 180.883H141.772V182.603H143.483V180.883Z" fill="#F0F0F0"/>
<path d="M143.483 183.76H141.772V185.474H143.483V183.76Z" fill="#F0F0F0"/>
<path d="M143.483 186.637H141.772V188.351H143.483V186.637Z" fill="#F0F0F0"/>
<path d="M160.018 142.598H158.307V144.312H160.018V142.598Z" fill="#F0F0F0"/>
<path d="M160.018 145.475H158.307V147.189H160.018V145.475Z" fill="#F0F0F0"/>
<path d="M160.018 148.353H158.307V150.067H160.018V148.353Z" fill="#F0F0F0"/>
<path d="M160.018 151.235H158.307V152.95H160.018V151.235Z" fill="#F0F0F0"/>
<path d="M160.018 154.113H158.307V155.828H160.018V154.113Z" fill="#F0F0F0"/>
<path d="M160.018 156.988H158.307V158.703H160.018V156.988Z" fill="#F0F0F0"/>
<path d="M160.018 165.626H158.307V167.34H160.018V165.626Z" fill="#F0F0F0"/>
<path d="M160.018 168.509H158.307V170.223H160.018V168.509Z" fill="#F0F0F0"/>
<path d="M160.018 171.386H158.307V173.1H160.018V171.386Z" fill="#F0F0F0"/>
<path d="M160.018 174.264H158.307V175.984H160.018V174.264Z" fill="#F0F0F0"/>
<path d="M160.018 177.14H158.307V178.854H160.018V177.14Z" fill="#F0F0F0"/>
<path d="M160.018 180.023H158.307V181.738H160.018V180.023Z" fill="#F0F0F0"/>
<path d="M160.018 182.899H158.307V184.614H160.018V182.899Z" fill="#F0F0F0"/>
<path d="M157.295 142.598H155.584V144.312H157.295V142.598Z" fill="#F0F0F0"/>
<path d="M157.295 145.475H155.584V147.189H157.295V145.475Z" fill="#F0F0F0"/>
<path d="M157.295 148.353H155.584V150.067H157.295V148.353Z" fill="#F0F0F0"/>
<path d="M157.295 151.235H155.584V152.95H157.295V151.235Z" fill="#F0F0F0"/>
<path d="M157.295 154.113H155.584V155.828H157.295V154.113Z" fill="#F0F0F0"/>
<path d="M157.295 156.988H155.584V158.703H157.295V156.988Z" fill="#F0F0F0"/>
<path d="M157.295 165.626H155.584V167.34H157.295V165.626Z" fill="#F0F0F0"/>
<path d="M157.295 168.509H155.584V170.223H157.295V168.509Z" fill="#F0F0F0"/>
<path d="M157.295 171.386H155.584V173.1H157.295V171.386Z" fill="#F0F0F0"/>
<path d="M157.295 174.264H155.584V175.984H157.295V174.264Z" fill="#F0F0F0"/>
<path d="M157.295 177.14H155.584V178.854H157.295V177.14Z" fill="#F0F0F0"/>
<path d="M157.295 180.023H155.584V181.738H157.295V180.023Z" fill="#F0F0F0"/>
<path d="M157.295 185.777H155.584V187.492H157.295V185.777Z" fill="#F0F0F0"/>
<path d="M66.8731 129.921H65.1562V131.635H66.8731V129.921Z" fill="#F0F0F0"/>
<path d="M66.8731 132.799H65.1562V134.513H66.8731V132.799Z" fill="#F0F0F0"/>
<path d="M66.8731 135.676H65.1562V137.39H66.8731V135.676Z" fill="#F0F0F0"/>
<path d="M66.8731 138.559H65.1562V140.273H66.8731V138.559Z" fill="#F0F0F0"/>
<path d="M66.8731 141.436H65.1562V143.15H66.8731V141.436Z" fill="#F0F0F0"/>
<path d="M66.8731 144.312H65.1562V146.027H66.8731V144.312Z" fill="#F0F0F0"/>
<path d="M66.8731 147.195H65.1562V148.91H66.8731V147.195Z" fill="#F0F0F0"/>
<path d="M66.8731 150.072H65.1562V151.787H66.8731V150.072Z" fill="#F0F0F0"/>
<path d="M66.8731 152.949H65.1562V154.664H66.8731V152.949Z" fill="#F0F0F0"/>
<path d="M66.8731 155.826H65.1562V157.54H66.8731V155.826Z" fill="#F0F0F0"/>
<path d="M66.8731 158.71H65.1562V160.424H66.8731V158.71Z" fill="#F0F0F0"/>
<path d="M66.8731 164.463H65.1562V166.177H66.8731V164.463Z" fill="#F0F0F0"/>
<path d="M66.8731 167.347H65.1562V169.067H66.8731V167.347Z" fill="#F0F0F0"/>
<path d="M66.8731 170.224H65.1562V171.944H66.8731V170.224Z" fill="#F0F0F0"/>
<path d="M66.8731 173.101H65.1562V174.815H66.8731V173.101Z" fill="#F0F0F0"/>
<path d="M66.8731 175.983H65.1562V177.698H66.8731V175.983Z" fill="#F0F0F0"/>
<path d="M66.8731 178.86H65.1562V180.575H66.8731V178.86Z" fill="#F0F0F0"/>
<path d="M66.8731 181.738H65.1562V183.453H66.8731V181.738Z" fill="#F0F0F0"/>
<path d="M66.8731 184.62H65.1562V186.334H66.8731V184.62Z" fill="#F0F0F0"/>
<path d="M64.1494 129.921H62.4385V131.635H64.1494V129.921Z" fill="#F0F0F0"/>
<path d="M64.1494 132.799H62.4385V134.513H64.1494V132.799Z" fill="#F0F0F0"/>
<path d="M64.1494 135.676H62.4385V137.39H64.1494V135.676Z" fill="#F0F0F0"/>
<path d="M64.1494 138.559H62.4385V140.273H64.1494V138.559Z" fill="#F0F0F0"/>
<path d="M64.1494 141.436H62.4385V143.15H64.1494V141.436Z" fill="#F0F0F0"/>
<path d="M64.1494 144.312H62.4385V146.027H64.1494V144.312Z" fill="#F0F0F0"/>
<path d="M64.1494 147.195H62.4385V148.91H64.1494V147.195Z" fill="#F0F0F0"/>
<path d="M64.1494 150.072H62.4385V151.787H64.1494V150.072Z" fill="#F0F0F0"/>
<path d="M64.1494 152.949H62.4385V154.664H64.1494V152.949Z" fill="#F0F0F0"/>
<path d="M64.1494 155.826H62.4385V157.54H64.1494V155.826Z" fill="#F0F0F0"/>
<path d="M64.1494 158.71H62.4385V160.424H64.1494V158.71Z" fill="#F0F0F0"/>
<path d="M64.1494 161.587H62.4385V163.301H64.1494V161.587Z" fill="#F0F0F0"/>
<path d="M64.1494 164.463H62.4385V166.177H64.1494V164.463Z" fill="#F0F0F0"/>
<path d="M64.1494 167.347H62.4385V169.067H64.1494V167.347Z" fill="#F0F0F0"/>
<path d="M64.1494 170.224H62.4385V171.944H64.1494V170.224Z" fill="#F0F0F0"/>
<path d="M64.1494 173.101H62.4385V174.815H64.1494V173.101Z" fill="#F0F0F0"/>
<path d="M64.1494 175.983H62.4385V177.698H64.1494V175.983Z" fill="#F0F0F0"/>
<path d="M64.1494 178.86H62.4385V180.575H64.1494V178.86Z" fill="#F0F0F0"/>
<path d="M64.1494 181.738H62.4385V183.453H64.1494V181.738Z" fill="#F0F0F0"/>
<path d="M64.1494 184.62H62.4385V186.334H64.1494V184.62Z" fill="#F0F0F0"/>
<path d="M80.2753 141.133H78.5645V142.847H80.2753V141.133Z" fill="#F0F0F0"/>
<path d="M80.2753 144.01H78.5645V145.724H80.2753V144.01Z" fill="#F0F0F0"/>
<path d="M80.2753 146.888H78.5645V148.602H80.2753V146.888Z" fill="#F0F0F0"/>
<path d="M80.2753 149.771H78.5645V151.485H80.2753V149.771Z" fill="#F0F0F0"/>
<path d="M80.2753 152.647H78.5645V154.362H80.2753V152.647Z" fill="#F0F0F0"/>
<path d="M80.2753 155.523H78.5645V157.238H80.2753V155.523Z" fill="#F0F0F0"/>
<path d="M80.2753 158.407H78.5645V160.122H80.2753V158.407Z" fill="#F0F0F0"/>
<path d="M80.2753 161.284H78.5645V162.999H80.2753V161.284Z" fill="#F0F0F0"/>
<path d="M80.2753 164.16H78.5645V165.874H80.2753V164.16Z" fill="#F0F0F0"/>
<path d="M80.2753 167.043H78.5645V168.757H80.2753V167.043Z" fill="#F0F0F0"/>
<path d="M77.5517 141.133H75.8408V142.847H77.5517V141.133Z" fill="#F0F0F0"/>
<path d="M77.5517 144.01H75.8408V145.724H77.5517V144.01Z" fill="#F0F0F0"/>
<path d="M77.5517 146.888H75.8408V148.602H77.5517V146.888Z" fill="#F0F0F0"/>
<path d="M77.5517 149.771H75.8408V151.485H77.5517V149.771Z" fill="#F0F0F0"/>
<path d="M77.5517 152.647H75.8408V154.362H77.5517V152.647Z" fill="#F0F0F0"/>
<path d="M77.5517 155.523H75.8408V157.238H77.5517V155.523Z" fill="#F0F0F0"/>
<path d="M77.5517 158.407H75.8408V160.122H77.5517V158.407Z" fill="#F0F0F0"/>
<path d="M77.5517 161.284H75.8408V162.999H77.5517V161.284Z" fill="#F0F0F0"/>
<path d="M77.5517 164.16H75.8408V165.874H77.5517V164.16Z" fill="#F0F0F0"/>
</svg>
